# xmcd
# 
# Track frame offsets:
#     150
#     19923
#     36608
# 
# Disc length: 551
# 
# Revision: 0
# Processed by: cddbd v1.5.2PL0 Copyright (c) Steve Scherf et al.
# Submitted via: fre:ac v1.0.17
# 
DISCID=23022503
DTITLE=RAG FAIR - 夏風便り/ココロ予報
DYEAR=0
DGENRE=A Cappella
TTITLE0=夏風便り
TTITLE1=ココロ予報
TTITLE2=ココロ予報(Weather Forecast Ver.)
EXTD=
EXTT0=
EXTT1=
EXTT2=
PLAYORDER=
